{"title":"The Hundred Code - Season 1 - 1080p x265 HEVC - FIXED ENG SUBS F","uid":15542772,"size":2995066127,"categoryP":"video","categoryS":"tv_shows","magnet":"?xt=urn:btih:078ae29bf600b12390f01dce0a7eb445bbf324a4&amp;dn=The+Hundred+Code+-+Season+1+-+1080p+x265+HEVC+-+FIXED+ENG+SUBS+F&amp;tr=udp%3A%2F%2Ftracker.leechers-paradise.org%3A6969&amp;tr=udp%3A%2F%2Fzer0day.ch%3A1337&amp;tr=udp%3A%2F%2Fopen.demonii.com%3A1337&amp;tr=udp%3A%2F%2Ftracker.coppersurfer.tk%3A6969&amp;tr=udp%3A%2F%2Fexodus.desync.com%3A6969","seeders":5,"leechers":3,"uploader":"BRSHNKV","files":24,"time":1470934902,"description":"New York, USA. Stockholm, Sweden. Over the past twelve months young, blonde, blue-eyed women have been found dead in a meadow where Asphodel flowers grow. New York Detective Tommy Conley gets a special dispensation from the NYPD to go observe and act as an adviser to the Stockholm Police Department in order to help solve these crimes. \r\n\r\nTech:\r\n\r\n\r\nFormat profile                           : Base Media / Version 2\r\nCodec ID                                 : mp42\r\nOverall bit rate mode                    : Variable\r\nOverall bit rate                         : 772 Kbps\r\nEncoded date                             : UTC 2016-07-12 22:10:53\r\nTagged date                              : UTC 2016-07-12 22:10:53\r\nWriting application                      : HandBrake 20160211184813-ffd8cb1-master 2016021301\r\n\r\nVideo\r\nID                                       : 1\r\nFormat                                   : HEVC\r\nFormat/Info                              : High Efficiency Video Coding\r\nFormat profile                           : Main   @Main\r\nCodec ID                                 : hev1\r\nCodec ID/Info                            : High Efficiency Video Coding\r\nBit rate                                 : 601 Kbps\r\nWidth                                    : 1 920 pixels\r\nHeight                                   : 1 080 pixels\r\nDisplay aspect ratio                     : 16:9\r\nFrame rate mode                          : Constant\r\nFrame rate                               : 25.000 fps\r\nColor space                              : YUV\r\nChroma subsampling                       : 4:2:0\r\nBit depth                                : 10 bits\r\nBits/(Pixel*Frame)                       : 0.012\r\nStream size                              : 184 MiB (78%)\r\nWriting library                          : x265 1.9:[Mac OS X][clang 7.0.2][64 bit] 10bit\r\nEncoded date                             : UTC 2016-07-12 22:10:53\r\nTagged date                              : UTC 2016-07-12 22:10:53\r\nColor range                              : Limited\r\nColor primaries                          : BT.709\r\nTransfer characteristics                 : BT.709\r\nMatrix coefficients                      : BT.709\r\n\r\nAudio\r\nID                                       : 2\r\nFormat                                   : AAC\r\nFormat/Info                              : Advanced Audio Codec\r\nFormat profile                           : LC\r\nCodec ID                                 : 40\r\nBit rate mode                            : Variable\r\nBit rate                                 : 165 Kbps\r\nChannel(s)                               : 2 channels\r\nChannel positions                        : Front: L R\r\nSampling rate                            : 48.0 KHz\r\nCompression mode                         : Lossy\r\nStream size                              : 50.7 MiB (21%)\r\nTitle                                    : Stereo / Stereo\r\nLanguage                                 : English\r\nEncoded date                             : UTC 2016-07-12 22:10:53\r\nTagged date                              : UTC 2016-07-12 22:10:53","torrent":{"xt":"urn:btih:078ae29bf600b12390f01dce0a7eb445bbf324a4","amp;dn":"The+Hundred+Code+-+Season+1+-+1080p+x265+HEVC+-+FIXED+ENG+SUBS+F","amp;tr":["udp%3A%2F%2Ftracker.leechers-paradise.org%3A6969","udp%3A%2F%2Fzer0day.ch%3A1337","udp%3A%2F%2Fopen.demonii.com%3A1337","udp%3A%2F%2Ftracker.coppersurfer.tk%3A6969","udp%3A%2F%2Fexodus.desync.com%3A6969"],"infoHash":"078ae29bf600b12390f01dce0a7eb445bbf324a4","infoHashBuffer":{"type":"Buffer","data":[7,138,226,155,246,0,177,35,144,240,29,206,10,126,180,69,187,243,36,164]},"announce":[],"urlList":[]}}